# xmcd
#
# Track frame offsets:
#	150
#	18484
#	35512
#	50046
#	67617
#	85717
#	102806
#	118476
#	135784
#	154581
#	169818
#	185986
#	201960
#	222865
#	238425
#	253505
#	271591
#	288004
#	306989
#	322256
#	340152
#
# Disc length: 4788
#
# Revision: 3
# Processed by: cddbd v1.5.1PL0 Copyright (c) Steve Scherf et al.
# Submitted via: EasyCDDAExtractor 5.1.0
# Normalized: r2:DSETVAR1
#
DISCID=3312b215
DTITLE=Various Artist - Great Country Hits Vol.1
DYEAR=2003
DGENRE=Country
TTITLE0=Alan Jackson - Drive (For Daddy Gene)
TTITLE1=Dixie Chicks - Wide Open Spaces
TTITLE2=Doug Stone - Why Didn't I Think Of That
TTITLE3=Garth Brooks - Standing Outside the Fire
TTITLE4=Jessica Andrews - Helplessly, Hopelessly
TTITLE5=Jimmy Wayne - Stay Gone
TTITLE6=Blake Shelton - Heavy Liftin'
TTITLE7=Kellie Coffey - Whatever It Takes
TTITLE8=Lonestar - Not A Day Goes By
TTITLE9=Mark Chesnutt - She Was
TTITLE10=Randy Travis - Forever And Ever, Amen
TTITLE11=Rascal Flatts - While You Loved Me
TTITLE12=Sarah Evans - I Keep Looking
TTITLE13=Sixwire - Look At Me Now
TTITLE14=Dolly Parton and Vince Gill - I Will Always Love You
TTITLE15=Terri Clark - Three Mississippi
TTITLE16=Wynonna Judd - What the World Needs
TTITLE17=Jessica Andrews - Unbreakable Heart
TTITLE18=Faith Hill - You're Still Here
TTITLE19=Diamond Rio - I Believe
TTITLE20=Martina McBride - Concrete Angel
EXTD=
EXTT0=
EXTT1=
EXTT2=
EXTT3=
EXTT4=
EXTT5=
EXTT6=
EXTT7=
EXTT8=
EXTT9=
EXTT10=
EXTT11=
EXTT12=
EXTT13=
EXTT14=
EXTT15=
EXTT16=
EXTT17=
EXTT18=
EXTT19=
EXTT20=
PLAYORDER=
